<svg id="Calque_1" xmlns="http://www.w3.org/2000/svg" viewBox="0 0 50 50"><style>.st0{fill:#FFFFFF;}</style><path class="st0" d="M45.9 5.8c-1.8.5-3.6 2.6-4.8 4-2 2.2-3.5 4.7-5 7.3-2.5-.9-5-2-7.4-3.1-1.5-.7-3-1.5-4.4-2.3-1.3-.7-2.5-1.5-3.7-2.3-.6-.3-1.1-.6-1.6-.8-1.4-.9-2.9-1.8-4.3-2.8C11.1 3.3 8 1 6.7.4c1.7 1.5 3.8 3.1 5.5 4.5-.7-.5-1.5-.9-2.3-1.5.7.6 1.6 1.2 2.3 1.8-.6-.4-1.2-.8-1.5-.9.4.4 1 .8 1.6 1.1.6.4 1.1.7 1.5.9.4.3 2 1.2 2.8 1.7-.7-.4-1.4-.8-2.2-1.3-.8-.5-1.6-1-2.3-1.3.5.4 1 .7 1.5 1.1-.7-.4-1.8-1.2-2.2-1.4.4.5 1 .9 1.6 1.3.6.4 1.2.9 1.9 1.3.8.5 1.5 1 2.2 1.5l.1.1c-.4-.2-.8-.5-1.3-.8-.7-.4-1.3-.8-1.8-1.1.5.4 1.2.8 1.7 1.2-.1 0-.1-.1-.2 0l.9.6.2.2c.7.5 1.3.9 2 1.3.3.2.6.3.8.5l.1.1c2 1.3 4 2.5 6.1 3.6 2.6 1.3 5.3 2.5 8 3.6.4.2.8.3 1.3.5-.7 1.3-1.4 2.5-2.1 3.8-.8-.4-1.6-.8-2.4-1.3-.7-.4-1.3-.8-1.8-1.3-1.1-.9-2.5-1.3-3.4-2.6-.4-.5-1.3-.9-1.8-1.2-.8 0-1.1 1-1.1 1.1-.1 1 .5.8 1 1.7-.4-.6.7-.3.9.6.3 1.3 1.7 1.2 2.5 1.9.2.2.5.3.8.4 1.3 1 2.8 1.4 4.4 2.2-.5.7-.9 1.5-1.4 2.2-.8-.3-1.6-.6-2.4-.8-4.8-1.5-10-1.9-14.9-1.3-3.7.5-8.8 1.2-10.5 5-1.8 4.1 4.2 7.5 7.4 8.2 5 1.1 10.4-.6 14.3-3.7 2-1.6 3.6-3.5 5.1-5.6 4 1.6 7.6 3.8 10.8 6.8.9-.6 1.8-2.1 1.7-3.2 0 .2-.5.7-.8 1.1-.8-.4-2.4-1.8-2.6-2-1.1-.8-2.2-1.6-3.4-2.3-1.4-.8-2.9-1.5-4.5-2.2.5-.7.9-1.5 1.4-2.2.4.2.9.1 1.2.2.3.1.5.3.7.4.3.1.7.2 1 .2-.3-.1-.6-.1-.9-.2-.2-.1.3-.2.5-.2.1 0 .1.3.2.2.1.1.3 0 .5 0 .1 0 0 .2 0 .2.2 0 .5-.2.6-.1.1.1.2.1.2.2.1 0 .1.1.2.1h1.8c.3 0-.2-.1 2.8-.1-3 0-2.1-.1-2.2-.3 0 .1-.8.1-.9.1l-.5-.1c.2 0 .1 0 .3.2V25v.2h.1l-.3-.3c-.4-.1-.9-.2-1.2-.4 0 0-.1.1-.1 0s0-.1-.1-.1l-.2-.2s0-.1-.1-.1V24.4s0-.1-.1-.1h-.1H38v1.8h-1.6l-.3-.9s-.1-.4-.1-.5l-.5-.4-.1-.1c-.1 0-.3-.1-.3-.2l-.1-.2-.3-.2c-.2-.1-.4-.2-.5-.3-.4-.2-.7-.4-1.1-.6.7-1.2 1.4-2.5 2.1-3.8 2.3.9 4.8 1.8 7.2 1.1 3.9-1.1 5.8-6.2 5.9-9.8 0-1.3 0-5-2.4-4.4zM17.8 8.1c-.7-.4-1.3-.9-1.9-1.2l1.9 1.2zm7.4 24.3c-4.3 3.3-10.3 4.8-15.4 2.9-2.1-.7-4.1-2.1-5.3-4.1-.3-.5-.6-1.2-.7-1.8-.2-1-.2-.7.5-1.1 1.2-.7 2.6-1.1 3.9-1.4 7-1.9 14.6-1.4 21.3 1.2-1.3 1.6-2.7 3.1-4.3 4.3zm10.4-8.3zm-1.2-.5c-.1 0-.2-.1-.3-.2.2 0 .2.1.3.2zM47 14.3c-1.1 4.8-5.7 4.6-9.4 3.4-.5-.2-.9-.3-1.4-.5 1.1-1.8 2.3-3.6 3.6-5.3.8-.9 1.6-1.7 2.4-2.5.8-.7 2.2-2.1 3.2-1.9 2.5.3 1.9 5.3 1.6 6.8z"/><path class="st0" d="M38.8 24.6h-.2.2c0 .1 0 0 0 0zM38.4 24.6zM38.1 24.7c.1 0 .1 0 0 0 .1 0 .1 0 0 0h0zM38.4 24.6s-.1.1 0 0v0zM38.4 24.7c0 .1.1.1 0 0 0 .1 0 .1 0 0zM37.5 25.4c-.2 0-.7.2-.5.3.4.1.7 0 1.1 0h.2c.1 0 .2-.1.3-.1.2-.1.3-.2.4-.3.1 0 .2 0 .3-.1h-.4c-.2 0-.3.3-.6.4 0 0 0-.2-.1-.2-.2.1-.4.2-.5.2-.1.1-.2-.2-.2-.2zM40 24c-.1 0-.1-.1-.2 0v.1c-.2 0-.3.1-.3.3h.1c.1-.1 0-.1-.1-.1.3 0 .5-.1.5-.3zM40.1 23.9v0z"/></svg>