<svg id="logo" data-name="logo" xmlns="http://www.w3.org/2000/svg" viewBox="0 0 145 145"><defs><style>.cls-1{fill:#050505;}</style></defs><title>logo_loan_truong_ui_designer</title><path d="M55.87,46.77q8.72,5.61,17.94,10.41a225.27,225.27,0,0,0,23.38,10.5c7.57,2.89,16.81,7.19,25,4.82,11.4-3.29,17-18.17,17.24-28.83.07-4,0-14.86-6.78-12.9-5.31,1.54-10.61,7.73-14.17,11.71-18,20.16-24.69,49.46-46.67,66.15-12.54,9.52-30,13.92-45.22,8.62-6.27-2.19-12.1-6.14-15.52-11.94a17.14,17.14,0,0,1-2.19-5.17c-.56-2.84-.67-2.13,1.33-3.26,3.47-2,7.68-3.09,11.51-4.14,33-9,69.89.2,94.82,23.55l.12-.05c2.65-1.88,5.19-6.06,4.89-9.36.06.68-3.16,3.35-3,4.92a3.67,3.67,0,0,1-.22,2.54l2-3.9c-.72,1.05-7.95-5.46-8.82-6.12a95.59,95.59,0,0,0-10-6.6A101.39,101.39,0,0,0,81,88.78,102.69,102.69,0,0,0,37.23,85C26.46,86.49,11.45,88.49,6.62,99.66c-5.26,12.14,12.26,22,21.67,24.08,14.58,3.16,30.35-1.67,41.86-10.84,9.45-7.53,16.28-17.81,22.36-28.11,7.19-12.19,13.18-25.34,22.4-36.19A65.5,65.5,0,0,1,122,41.35c2.22-1.91,6.3-6,9.47-5.63,7,.88,5.24,15.32,4.24,19.81-3.13,13.94-16.6,13.51-27.52,9.85A218.14,218.14,0,0,1,82.15,54.68a224.39,224.39,0,0,1-24.06-13.6C49.82,35.71,36.8,33.11,55.87,46.77Z"/><path class="cls-1" d="M111.71,85.61a4.52,4.52,0,0,1-.5.09.91.91,0,0,1,.31.2C111.65,85.94,111.67,85.77,111.71,85.61Z"/><path class="cls-1" d="M110.75,85.74h-.08l-.06.07Z"/><path class="cls-1" d="M109.88,86l.12,0h.1l.25-.06A.61.61,0,0,0,109.88,86Z"/><path class="cls-1" d="M110.62,86.11a.25.25,0,0,1,0-.3h0a1.53,1.53,0,0,1-.25.12A.64.64,0,0,1,110.62,86.11Z"/><path class="cls-1" d="M110.62,86.11c.06.1.16.19.2.24A1.94,1.94,0,0,0,110.62,86.11Z"/><path class="cls-1" d="M110.51,88.68c-.1.08-.1-.64-.3-.47a3.66,3.66,0,0,1-1.59.46c-.27.13-.51-.71-.75-.59-.54.13-2.14.7-1.33.86a11.8,11.8,0,0,0,3.33,0,1.07,1.07,0,0,1,.24-.06l.14-.06.29-.13a6.48,6.48,0,0,0,.74-.32,12.82,12.82,0,0,0,1.27-.74,3.3,3.3,0,0,1,.74-.2c-.35,0-.69,0-1.06,0S111.43,88.44,110.51,88.68Z"/><path class="cls-1" d="M114.88,83.81l.06.36c-.66,0-.74.43-1,.88l.39.14c.17-.22,0-.37-.23-.33a1.35,1.35,0,0,0,1.27-.94C115.22,83.85,115,83.74,114.88,83.81Z"/><path class="cls-1" d="M115.5,83.61c0,.1-.05.21-.08.3l.06,0,0-.32Z"/><path class="cls-1" d="M107.79,86.4a15.15,15.15,0,0,1-3.6-1.25c-.14.09-.26.22-.35.09a.93.93,0,0,0-.17-.35l-.48-.24-.2,0h0c-.13,0-.14.15-.12.27a1.47,1.47,0,0,1,.08.31c0-.07-.06-.19-.08-.31a.76.76,0,0,0-.19-.3,1,1,0,0,1-.49-.17.67.67,0,0,1,.49.17l.32,0,.11,0L102,84l-.26,0c-.31,0-.62-.05-.66-.44l-.19-.11v.08l0-.09L100,83a5.94,5.94,0,0,1-.73.13l-.05-.41a.7.7,0,0,1-.46.19c.07.26.12.54.19.73.05.41.72-.48.68.24,0-.72-.63.17-.68-.24-.07-.19-.12-.47-.19-.73-.32,0-.62-.27-.76-.71.47-.12.65.27.76.71a.7.7,0,0,0,.46-.19l.05.41A5.94,5.94,0,0,0,100,83l-1.63-.9c-3.52-2-6.92-3.54-10.52-5.7a50,50,0,0,1-5.41-3.83c-3.34-2.72-7.19-3.79-9.93-7.54-1.1-1.4-3.78-2.63-5.2-3.45-2.45-.14-3.17,3.07-3.17,3.27-.29,2.93,1.34,2.24,2.86,5-1.12-1.71,2-.74,2.61,1.7.79,3.66,5.05,3.57,7.46,5.67a15.61,15.61,0,0,0,2.2,1.3c3.88,3.1,8.45,4.09,13,6.41a11.49,11.49,0,0,0,3.78.56,15.59,15.59,0,0,1,2.1,1.16,7.9,7.9,0,0,0,2.85.58c-1-.25-1.69-.35-2.73-.68-.69-.25.83-.65,1.35-.65.25-.07.24.8.49.72a3.89,3.89,0,0,0,1.44,0c.25-.07,0,.59.08.55.67.1,1.48-.56,1.8-.22l.73.64a1.5,1.5,0,0,0,.52.24l.42,0a2.63,2.63,0,0,1,.09-.77c.15.1.34.33.51.42-.16-.09-.35-.33-.51-.42a2.63,2.63,0,0,0-.09.77c1-.1,2.14-.17,3.14-.33v-.07a1.84,1.84,0,0,1-1.53-.78c.19.22.11.4-.17.37l-.11-.41c.53-.06,1-.14,1.36.46l.35-.18c.13.12.09.35.09.54h.34A5.65,5.65,0,0,0,107.79,86.4Z"/><path class="cls-1" d="M102.66,84.59l.26,0-.92-.49C102,84.54,102.34,84.57,102.66,84.59Z"/><path d="M41.45,30.69C30.72,23.45,21.7,16.61,17.77,14.93c5.1,4.51,11.06,9,16.15,13-2.07-1.33-4.53-2.78-6.88-4.51,2.15,1.76,4.58,3.65,6.7,5.13a32.68,32.68,0,0,0-4.42-2.7c1.3,1,3,2.22,4.54,3.31L38.15,32c1.27.88,7.43,4.41,9,5.62-2.31-1.26-4.86-2.78-7.35-4.21s-4.81-2.87-6.7-3.93c1.44,1.12,2.93,2.13,4.32,3.23-1.91-1.09-5.41-3.58-6.46-4,1.8,1.39,3.55,2.61,5.32,3.84s3.54,2.49,5.48,3.83c3.1,2.22,5.95,4.13,9.06,6l-6.11-3.65c-2-1.26-3.93-2.41-5.29-3.1,1.6,1.24,3.38,2.4,5.11,3.55a1,1,0,0,0-.45-.14c.76.53,1.75,1.24,2.56,1.76a.35.35,0,0,0,0,.13l0,0,.59.49c1.92,1.33,3.88,2.63,5.88,3.82s4,2.41,5.92,3.47c2.31,1.28,4.47,2.57,6.58,3.85l3.46-4.64C60.65,43.08,50.46,36.78,41.45,30.69Zm3.36,3,12.35,8.23C53.78,39.65,48.47,36.23,44.82,33.69Z"/></svg>